<?xml version="1.0" standalone="no"?>
<!DOCTYPE svg PUBLIC "-//W3C//DTD SVG 20010904//EN"
 "http://www.w3.org/TR/2001/REC-SVG-20010904/DTD/svg10.dtd">
<svg version="1.0" xmlns="http://www.w3.org/2000/svg"
 width="500.000000pt" height="500.000000pt" viewBox="0 0 500.000000 500.000000"
 preserveAspectRatio="xMidYMid meet">

<g transform="translate(0.000000,500.000000) scale(0.100000,-0.100000)"
fill="#000000" stroke="none">
<path d="M1334 3054 c-72 -26 -164 -131 -164 -186 0 -8 -8 -22 -18 -31 -15
-14 -40 -17 -131 -17 l-112 0 3 -72 3 -73 56 -3 56 -3 -24 -50 c-46 -95 -42
-137 19 -204 28 -30 28 -31 28 -170 0 -192 -3 -185 80 -185 l67 0 5 140 c5
154 -1 140 83 206 22 17 69 46 105 65 36 18 67 37 68 41 2 5 7 6 12 3 4 -3 13
2 20 10 16 19 30 19 30 -1 0 -9 -5 -12 -12 -8 -7 4 -8 3 -4 -5 10 -16 -25
-162 -37 -154 -6 3 -7 1 -3 -6 8 -13 -24 -162 -33 -156 -3 1 -6 -11 -7 -28 0
-18 -4 -49 -8 -69 l-8 -38 69 0 69 0 13 48 c30 108 15 97 126 97 l99 0 8 -35
c5 -19 14 -52 19 -72 l10 -38 69 0 c68 0 70 1 70 25 0 15 14 40 35 62 42 45
55 36 55 -39 l0 -48 70 0 c53 0 70 3 70 14 0 9 20 3 69 -20 134 -67 206 -47
353 99 l93 91 5 -89 5 -90 73 -3 72 -3 1 208 c0 114 1 251 2 303 l2 95 50 3
c96 5 95 3 95 82 l0 70 -220 0 -221 0 3 -72 3 -73 68 -3 67 -3 0 -56 c0 -40
-3 -54 -12 -50 -7 3 -38 15 -68 27 -30 13 -69 29 -87 36 -17 8 -36 14 -41 14
-6 0 -14 21 -18 48 -17 118 -45 132 -268 132 l-166 0 0 -114 0 -114 -42 -53
c-24 -30 -52 -65 -63 -78 -11 -12 -28 -32 -38 -43 -9 -12 -19 -19 -21 -17 -2
2 -23 81 -46 174 -23 94 -44 178 -46 188 -6 19 6 18 101 -3 65 -15 103 -12
114 9 9 16 5 22 -34 40 -25 12 -48 21 -51 21 -8 0 -58 23 -169 76 -49 24 -112
64 -139 88 -78 72 -184 94 -282 60z m303 -223 c15 -9 14 -10 -14 -11 -35 0
-32 6 -59 -114 -10 -43 -20 -72 -22 -65 -3 8 -18 42 -34 77 -42 91 -46 120
-18 130 26 10 120 -1 147 -17z m57 -296 c-4 -16 -3 -17 5 -5 9 12 11 10 11
-10 0 -14 9 -59 20 -100 11 -41 20 -76 20 -76 0 -1 -28 -1 -62 0 -35 0 -62 5
-62 11 1 6 14 66 30 134 24 105 29 120 36 95 4 -16 5 -38 2 -49z"/>
<path d="M471 2913 c-70 -37 -76 -54 -79 -247 -4 -189 -4 -186 58 -204 127
-38 259 -92 224 -92 -6 0 -8 -23 -4 -60 8 -88 1 -100 -60 -100 -45 0 -52 3
-60 26 -6 14 -10 45 -10 69 0 50 -6 53 -97 47 l-53 -4 0 -91 c0 -168 34 -197
225 -197 198 0 215 21 215 267 0 87 -4 163 -8 169 -4 6 -45 24 -92 39 -47 15
-107 35 -135 44 l-50 17 -3 78 c-4 95 4 106 69 106 42 0 49 -3 53 -22 11 -51
12 -88 4 -88 -5 0 -3 -7 6 -15 10 -11 36 -15 86 -15 l72 0 -4 103 c-3 82 -7
107 -23 129 -35 47 -53 52 -180 56 -101 2 -126 0 -154 -15z"/>
<path d="M3739 2856 c-52 -27 -182 -116 -187 -128 -10 -22 -21 -3 -24 40 l-3
47 -68 3 c-51 2 -71 -1 -83 -13 -8 -8 -11 -15 -5 -15 14 0 15 -518 1 -554 -8
-23 -15 -26 -58 -26 -26 0 -53 5 -60 12 -9 9 -12 90 -12 304 l0 292 -71 4
c-39 2 -73 1 -75 -1 -2 -2 -4 -153 -4 -335 0 -311 1 -333 20 -363 31 -52 64
-63 192 -63 130 0 170 14 202 68 16 29 20 62 25 228 l6 195 60 -58 c81 -78
122 -105 147 -97 18 6 140 -30 166 -49 7 -6 12 -34 12 -72 0 -71 -4 -75 -74
-75 -52 0 -66 13 -66 61 0 43 -10 49 -80 49 -63 0 -74 -14 -67 -89 6 -71 22
-107 60 -135 25 -19 42 -21 157 -21 114 0 132 2 157 21 54 40 64 74 61 229
l-3 139 -60 24 c-57 22 -60 25 -61 58 l-1 34 64 0 63 0 0 70 c0 77 -15 124
-50 155 -17 16 -40 21 -101 24 -76 3 -80 4 -95 32 -18 35 -26 35 -85 5z"/>
<path d="M4170 2517 c0 -167 3 -338 6 -380 l7 -77 214 0 214 0 -3 73 -3 72
-137 3 -138 3 0 74 0 74 108 3 107 3 3 72 3 72 -108 3 -108 3 -3 78 -3 77 125
0 c68 0 131 3 140 6 12 5 16 21 16 75 l0 69 -220 0 -220 0 0 -303z"/>
<path d="M4756 2323 c-6 -14 -5 -15 5 -6 7 7 10 15 7 18 -3 3 -9 -2 -12 -12z"/>
</g>
</svg>
